<svg version="1.1" xmlns="http://www.w3.org/2000/svg" xmlns:xlink="http://www.w3.org/1999/xlink" viewBox="0 0 226 226"><g fill="none" fill-rule="nonzero" stroke="none" stroke-width="1" stroke-linecap="butt" stroke-linejoin="miter" stroke-miterlimit="10" stroke-dasharray="" stroke-dashoffset="0" font-family="none" font-weight="none" font-size="none" text-anchor="none" style="mix-blend-mode: normal"><path d="M0,226v-226h226v226z" fill="none"></path><g fill="#618967"><path d="M178.91667,28.25h-131.83333c-10.40542,0 -18.83333,8.42792 -18.83333,18.83333v131.83333c0,10.40542 8.42792,18.83333 18.83333,18.83333h131.83333c10.40542,0 18.83333,-8.42792 18.83333,-18.83333v-131.83333c0,-10.40542 -8.42792,-18.83333 -18.83333,-18.83333zM185.57425,119.65758l-31.075,31.075c-1.83625,1.83625 -4.24692,2.75908 -6.65758,2.75908c-2.41067,0 -4.82133,-0.92283 -6.65758,-2.75908c-3.68192,-3.68192 -3.68192,-9.63325 0,-13.31517l15.00075,-15.00075h-71.43483c-5.20742,0 -9.41667,-4.20925 -9.41667,-9.41667c0,-5.20742 4.20925,-9.41667 9.41667,-9.41667h71.43483l-15.00075,-15.00075c-3.68192,-3.68192 -3.68192,-9.63325 0,-13.31517c3.68192,-3.68192 9.63325,-3.68192 13.31517,0l31.075,31.075c3.68192,3.68192 3.68192,9.63325 0,13.31517z"></path></g></g></svg>